<svg width="400" height="300" viewBox="0 0 400 300" xmlns="http://www.w3.org/2000/svg">
  <defs>
    <linearGradient id="bg-gradient3" x1="0%" y1="0%" x2="100%" y2="100%">
      <stop offset="0%" style="stop-color:#081b29;stop-opacity:1" />
      <stop offset="100%" style="stop-color:#0ef;stop-opacity:0.2" />
    </linearGradient>
    <linearGradient id="film-gradient" x1="0%" y1="0%" x2="100%" y2="100%">
      <stop offset="0%" style="stop-color:#333;stop-opacity:1" />
      <stop offset="100%" style="stop-color:#666;stop-opacity:1" />
    </linearGradient>
    <linearGradient id="text-gradient" x1="0%" y1="0%" x2="100%" y2="100%">
      <stop offset="0%" style="stop-color:#0ef;stop-opacity:1" />
      <stop offset="100%" style="stop-color:#00ffff;stop-opacity:0.8" />
    </linearGradient>
    <filter id="glow3">
      <feGaussianBlur stdDeviation="3" result="coloredBlur"/>
      <feMerge> 
        <feMergeNode in="coloredBlur"/>
        <feMergeNode in="SourceGraphic"/>
      </feMerge>
    </filter>
  </defs>
  
  <!-- Background -->
  <rect width="400" height="300" fill="url(#bg-gradient3)"/>
  
  <!-- Film Strip -->
  <g transform="translate(50, 100)">
    <rect x="0" y="0" width="300" height="80" fill="url(#film-gradient)" stroke="#0ef" stroke-width="2"/>
    <!-- Film holes -->
    <g fill="#081b29">
      <rect x="10" y="10" width="8" height="8"/>
      <rect x="10" y="62" width="8" height="8"/>
      <rect x="60" y="10" width="8" height="8"/>
      <rect x="60" y="62" width="8" height="8"/>
      <rect x="110" y="10" width="8" height="8"/>
      <rect x="110" y="62" width="8" height="8"/>
      <rect x="160" y="10" width="8" height="8"/>
      <rect x="160" y="62" width="8" height="8"/>
      <rect x="210" y="10" width="8" height="8"/>
      <rect x="210" y="62" width="8" height="8"/>
      <rect x="260" y="10" width="8" height="8"/>
      <rect x="260" y="62" width="8" height="8"/>
    </g>
    
    <!-- Movie frames -->
    <g fill="#444">
      <rect x="25" y="15" width="30" height="50"/>
      <rect x="75" y="15" width="30" height="50"/>
      <rect x="125" y="15" width="30" height="50"/>
      <rect x="175" y="15" width="30" height="50"/>
      <rect x="225" y="15" width="30" height="50"/>
    </g>
    
    <!-- Genre labels on frames -->
    <g fill="#0ef" font-family="Arial" font-size="8" text-anchor="middle">
      <text x="40" y="35">ACTION</text>
      <text x="40" y="45">🎬</text>
      <text x="90" y="35">COMEDY</text>
      <text x="90" y="45">😄</text>
      <text x="140" y="35">DRAMA</text>
      <text x="140" y="45">🎭</text>
      <text x="190" y="35">HORROR</text>
      <text x="190" y="45">👻</text>
      <text x="240" y="35">SCI-FI</text>
      <text x="240" y="45">🚀</text>
    </g>
  </g>
  
  <!-- Machine Learning Model visualization -->
  <g transform="translate(200, 220)">
    <rect x="-60" y="-25" width="120" height="50" fill="none" stroke="#0ef" stroke-width="2" opacity="0.7"/>
    <text x="0" y="-5" text-anchor="middle" fill="#0ef" font-family="Arial" font-size="12">ML Algorithm</text>
    <text x="0" y="8" text-anchor="middle" fill="#0ef" font-family="Arial" font-size="10">Classification</text>
    
    <!-- Neural network nodes -->
    <g fill="#0ef" opacity="0.6">
      <circle cx="-40" cy="0" r="3"/>
      <circle cx="-20" cy="-8" r="3"/>
      <circle cx="-20" cy="8" r="3"/>
      <circle cx="0" cy="0" r="3"/>
      <circle cx="20" cy="-8" r="3"/>
      <circle cx="20" cy="8" r="3"/>
      <circle cx="40" cy="0" r="3"/>
    </g>
    
    <!-- Connections -->
    <g stroke="#0ef" stroke-width="1" opacity="0.4">
      <line x1="-40" y1="0" x2="-20" y2="-8"/>
      <line x1="-40" y1="0" x2="-20" y2="8"/>
      <line x1="-20" y1="-8" x2="0" y2="0"/>
      <line x1="-20" y1="8" x2="0" y2="0"/>
      <line x1="0" y1="0" x2="20" y2="-8"/>
      <line x1="0" y1="0" x2="20" y2="8"/>
      <line x1="20" y1="-8" x2="40" y2="0"/>
      <line x1="20" y1="8" x2="40" y2="0"/>
    </g>
  </g>
  
  <!-- Text processing visualization -->
  <g transform="translate(80, 60)">
    <rect x="0" y="0" width="240" height="25" fill="rgba(0, 238, 255, 0.1)" stroke="#0ef" stroke-width="1"/>
    <text x="120" y="15" text-anchor="middle" fill="#0ef" font-family="Arial" font-size="12">"Action-packed thriller with amazing effects..."</text>
  </g>
  
  <!-- Title -->
  <text x="200" y="30" text-anchor="middle" fill="#0ef" font-family="Arial" font-size="20" font-weight="bold">Movie Genre Classification</text>
  
  <!-- Subtitle -->
  <text x="200" y="285" text-anchor="middle" fill="#ededed" font-family="Arial" font-size="14">Machine Learning • NLP • Text Classification</text>
</svg>